# xmcd
#
# Track frame offsets:
# 150
# 14018
# 31523
# 44828
# 60593
# 77323
# 91068
# 106240
# 123475
# 140010
#
# Disc length: 2085 seconds
#
#
# Revision: 2
# Processed by: cddbd v1.5.1PL0 Copyright (c) Steve Scherf et al.
# Submitted via: FreeRIP 2.80 
#
DISCID=7908230a
DTITLE=Tanya Tucker - What Do I Do With Me
DYEAR=1991
DGENRE=Country
TTITLE0=If Your Heart Ain't Busy Tonight
TTITLE1=Some Kind Of Trouble
TTITLE2=(Without You) What Do I Do With Me
TTITLE3=Down To My Last Teardrop
TTITLE4=Everything That You Want
TTITLE5=Trail Of Tears
TTITLE6=Bidding America Goodbye (The Auction)
TTITLE7=Time And Distance
TTITLE8=He Was Just Leaving
TTITLE9=Right About Now
EXTD=
EXTT0=
EXTT1=
EXTT2=
EXTT3=
EXTT4=
EXTT5=
EXTT6=
EXTT7=
EXTT8=
EXTT9=
PLAYORDER=
